<svg class="tcn-icon" viewBox="0 0 110 40" width="96" height="42">
  <path d="M3.70596 30.4238V15.5935H0.027832V8.0002H3.70596V0H12.4461V8.0002H19.691V15.5935H12.4461V28.9659C12.4461 31.0104 13.3079 32.0028 15.2633 32.0028C16.7702 32.0098 18.2542 31.6277 19.5757 30.8922V38.0161C17.489 39.2664 15.0975 39.8938 12.6757 39.8263C7.32845 39.8243 3.70596 37.6648 3.70596 30.4238Z" fill="currentColor"/>
  <path d="M23.4835 23.825V23.7089C23.4535 21.5511 23.8518 19.4092 24.6545 17.4111C25.4573 15.413 26.648 13.5996 28.1558 12.079C29.6636 10.5584 31.4575 9.36185 33.4305 8.56066C35.4035 7.75947 37.5151 7.37007 39.6395 7.4157C45.447 7.4157 49.0695 9.40162 51.9444 12.6718L46.5972 18.5114C44.6418 16.4094 42.6874 15.0656 39.5829 15.0656C35.2088 15.0656 32.1083 18.9788 32.1083 23.5918V23.7089C32.1083 28.4965 35.1552 32.3512 39.9278 32.3512C42.8594 32.3512 44.8714 31.066 46.9998 29.0195L52.1164 34.2695C50.5943 36.145 48.6658 37.6376 46.4815 38.6305C44.2972 39.6234 41.9164 40.0897 39.5252 39.993C37.4176 40.0348 35.3232 39.6461 33.3663 38.85C31.4095 38.0538 29.6301 36.8665 28.1339 35.3584C26.6376 33.8503 25.4549 32.0523 24.656 30.0711C23.8572 28.0898 23.4585 25.9658 23.4835 23.825Z" fill="currentColor"/>
  <path d="M56.7417 8.0002H65.4818V12.4425C67.4938 9.81752 70.0814 7.41968 74.5081 7.41968C81.1209 7.41968 84.9729 11.862 84.9729 19.0414V39.3044H76.2339V21.84C76.2339 17.635 74.2785 15.4794 70.9433 15.4794C67.6081 15.4794 65.4818 17.64 65.4818 21.84V39.3003H56.7417V8.0002Z" fill="currentColor"/>
</svg> 